<mxfile host="app.diagrams.net" modified="2022-07-06T11:26:21.278Z" agent="5.0 (Macintosh; Intel Mac OS X 10_15_7) AppleWebKit/537.36 (KHTML, like Gecko) Chrome/103.0.0.0 Safari/537.36" etag="AYKbf1waZlR6FcmlS7WD" version="20.0.4" type="github">
  <diagram id="Z0xH5Yro_LHS8Ea-Hd-o" name="第 1 页">
    <mxGraphModel dx="809" dy="637" grid="1" gridSize="10" guides="1" tooltips="1" connect="1" arrows="1" fold="1" page="1" pageScale="1" pageWidth="827" pageHeight="1169" math="0" shadow="0">
      <root>
        <mxCell id="0" />
        <mxCell id="1" parent="0" />
        <mxCell id="n-37MbfcTfM_iCQDtQmH-1" value="" style="endArrow=none;html=1;rounded=0;strokeWidth=3;strokeColor=#FF0000;" edge="1" parent="1">
          <mxGeometry width="50" height="50" relative="1" as="geometry">
            <mxPoint x="100" y="430" as="sourcePoint" />
            <mxPoint x="600" y="430" as="targetPoint" />
          </mxGeometry>
        </mxCell>
        <mxCell id="n-37MbfcTfM_iCQDtQmH-2" value="User Space" style="text;html=1;align=center;verticalAlign=middle;resizable=0;points=[];autosize=1;strokeColor=none;fillColor=none;" vertex="1" parent="1">
          <mxGeometry x="100" y="400" width="90" height="30" as="geometry" />
        </mxCell>
        <mxCell id="n-37MbfcTfM_iCQDtQmH-3" value="&lt;font style=&quot;font-size: 13px;&quot;&gt;Kernel Space&lt;/font&gt;" style="text;html=1;align=center;verticalAlign=middle;resizable=0;points=[];autosize=1;strokeColor=none;fillColor=none;" vertex="1" parent="1">
          <mxGeometry x="500" y="430" width="100" height="30" as="geometry" />
        </mxCell>
        <mxCell id="n-37MbfcTfM_iCQDtQmH-4" value="&lt;font style=&quot;font-size: 18px;&quot;&gt;CPU Scheduler&lt;/font&gt;" style="rounded=1;whiteSpace=wrap;html=1;fontSize=13;fillColor=#e51400;fontColor=#ffffff;strokeColor=#B20000;" vertex="1" parent="1">
          <mxGeometry x="239" y="640" width="200" height="50" as="geometry" />
        </mxCell>
        <mxCell id="n-37MbfcTfM_iCQDtQmH-19" value="" style="group" vertex="1" connectable="0" parent="1">
          <mxGeometry x="326" y="460" width="26" height="180" as="geometry" />
        </mxCell>
        <mxCell id="n-37MbfcTfM_iCQDtQmH-17" value="" style="group" vertex="1" connectable="0" parent="n-37MbfcTfM_iCQDtQmH-19">
          <mxGeometry width="26" height="180" as="geometry" />
        </mxCell>
        <mxCell id="n-37MbfcTfM_iCQDtQmH-16" value="" style="endArrow=none;html=1;rounded=0;fontSize=18;strokeColor=#FF0000;strokeWidth=3;" edge="1" parent="n-37MbfcTfM_iCQDtQmH-17">
          <mxGeometry width="50" height="50" relative="1" as="geometry">
            <mxPoint x="13" y="180" as="sourcePoint" />
            <mxPoint x="13" as="targetPoint" />
          </mxGeometry>
        </mxCell>
        <mxCell id="n-37MbfcTfM_iCQDtQmH-15" value="T" style="rounded=0;whiteSpace=wrap;html=1;fontSize=18;" vertex="1" parent="n-37MbfcTfM_iCQDtQmH-17">
          <mxGeometry y="20" width="26" height="140" as="geometry" />
        </mxCell>
        <mxCell id="n-37MbfcTfM_iCQDtQmH-18" value="T" style="rounded=0;whiteSpace=wrap;html=1;fontSize=18;" vertex="1" parent="n-37MbfcTfM_iCQDtQmH-19">
          <mxGeometry y="20" width="26" height="140" as="geometry" />
        </mxCell>
        <mxCell id="n-37MbfcTfM_iCQDtQmH-29" style="edgeStyle=orthogonalEdgeStyle;rounded=0;orthogonalLoop=1;jettySize=auto;html=1;fontSize=18;fontColor=#FFFFFF;strokeColor=#FF0000;strokeWidth=3;" edge="1" parent="1" source="n-37MbfcTfM_iCQDtQmH-25">
          <mxGeometry relative="1" as="geometry">
            <mxPoint x="339" y="460" as="targetPoint" />
          </mxGeometry>
        </mxCell>
        <mxCell id="n-37MbfcTfM_iCQDtQmH-35" value="" style="edgeStyle=orthogonalEdgeStyle;rounded=0;orthogonalLoop=1;jettySize=auto;html=1;fontSize=18;fontColor=#000000;strokeColor=#FF0000;strokeWidth=3;" edge="1" parent="1" source="n-37MbfcTfM_iCQDtQmH-25" target="n-37MbfcTfM_iCQDtQmH-34">
          <mxGeometry relative="1" as="geometry" />
        </mxCell>
        <mxCell id="n-37MbfcTfM_iCQDtQmH-25" value="" style="triangle;whiteSpace=wrap;html=1;fontSize=18;rotation=-90;fillColor=#fa6800;fontColor=#000000;strokeColor=#C73500;" vertex="1" parent="1">
          <mxGeometry x="309.38" y="310.38" width="59.25" height="80" as="geometry" />
        </mxCell>
        <mxCell id="n-37MbfcTfM_iCQDtQmH-27" value="&lt;font color=&quot;#ffffff&quot;&gt;M&lt;/font&gt;" style="text;html=1;strokeColor=none;fillColor=none;align=center;verticalAlign=middle;whiteSpace=wrap;rounded=0;fontSize=18;" vertex="1" parent="1">
          <mxGeometry x="309" y="341" width="60" height="30" as="geometry" />
        </mxCell>
        <mxCell id="n-37MbfcTfM_iCQDtQmH-34" value="Logic Processor" style="rounded=1;whiteSpace=wrap;html=1;fontSize=18;fontColor=#ffffff;fillColor=#6a00ff;strokeColor=#3700CC;" vertex="1" parent="1">
          <mxGeometry x="279" y="230" width="120" height="60" as="geometry" />
        </mxCell>
        <mxCell id="n-37MbfcTfM_iCQDtQmH-37" style="edgeStyle=orthogonalEdgeStyle;rounded=0;orthogonalLoop=1;jettySize=auto;html=1;entryX=0.5;entryY=0;entryDx=0;entryDy=0;fontSize=18;fontColor=#000000;strokeColor=#FF0000;strokeWidth=3;" edge="1" parent="1" source="n-37MbfcTfM_iCQDtQmH-36" target="n-37MbfcTfM_iCQDtQmH-34">
          <mxGeometry relative="1" as="geometry" />
        </mxCell>
        <mxCell id="n-37MbfcTfM_iCQDtQmH-36" value="G2" style="ellipse;whiteSpace=wrap;html=1;aspect=fixed;fontSize=18;fontColor=#ffffff;fillColor=#60a917;strokeColor=#2D7600;" vertex="1" parent="1">
          <mxGeometry x="304" y="120" width="70" height="70" as="geometry" />
        </mxCell>
        <mxCell id="n-37MbfcTfM_iCQDtQmH-41" style="edgeStyle=orthogonalEdgeStyle;rounded=0;orthogonalLoop=1;jettySize=auto;html=1;fontSize=18;fontColor=#000000;strokeColor=#2D7600;strokeWidth=3;fillColor=#60a917;dashed=1;" edge="1" parent="1" source="n-37MbfcTfM_iCQDtQmH-38">
          <mxGeometry relative="1" as="geometry">
            <mxPoint x="400" y="260" as="targetPoint" />
          </mxGeometry>
        </mxCell>
        <mxCell id="n-37MbfcTfM_iCQDtQmH-38" value="G1" style="ellipse;whiteSpace=wrap;html=1;aspect=fixed;fontSize=18;fontColor=#ffffff;fillColor=#60a917;strokeColor=#2D7600;" vertex="1" parent="1">
          <mxGeometry x="470" y="225" width="70" height="70" as="geometry" />
        </mxCell>
        <mxCell id="n-37MbfcTfM_iCQDtQmH-42" style="edgeStyle=orthogonalEdgeStyle;rounded=0;orthogonalLoop=1;jettySize=auto;html=1;exitX=0;exitY=0.5;exitDx=0;exitDy=0;entryX=1;entryY=0.5;entryDx=0;entryDy=0;fontSize=18;fontColor=#000000;strokeColor=#005700;strokeWidth=3;fillColor=#008a00;dashed=1;" edge="1" parent="1" source="n-37MbfcTfM_iCQDtQmH-39" target="n-37MbfcTfM_iCQDtQmH-38">
          <mxGeometry relative="1" as="geometry" />
        </mxCell>
        <mxCell id="n-37MbfcTfM_iCQDtQmH-39" value="G3" style="ellipse;whiteSpace=wrap;html=1;aspect=fixed;fontSize=18;fontColor=#ffffff;fillColor=#60a917;strokeColor=#2D7600;" vertex="1" parent="1">
          <mxGeometry x="590" y="225" width="70" height="70" as="geometry" />
        </mxCell>
        <mxCell id="n-37MbfcTfM_iCQDtQmH-43" style="edgeStyle=orthogonalEdgeStyle;rounded=0;orthogonalLoop=1;jettySize=auto;html=1;exitX=0;exitY=0.5;exitDx=0;exitDy=0;entryX=1;entryY=0.5;entryDx=0;entryDy=0;fontSize=18;fontColor=#000000;strokeColor=#2D7600;strokeWidth=3;fillColor=#60a917;dashed=1;" edge="1" parent="1" source="n-37MbfcTfM_iCQDtQmH-40" target="n-37MbfcTfM_iCQDtQmH-39">
          <mxGeometry relative="1" as="geometry" />
        </mxCell>
        <mxCell id="n-37MbfcTfM_iCQDtQmH-40" value="G5" style="ellipse;whiteSpace=wrap;html=1;aspect=fixed;fontSize=18;fontColor=#ffffff;fillColor=#60a917;strokeColor=#2D7600;" vertex="1" parent="1">
          <mxGeometry x="710" y="225" width="70" height="70" as="geometry" />
        </mxCell>
        <mxCell id="n-37MbfcTfM_iCQDtQmH-46" value="Runing" style="text;html=1;align=center;verticalAlign=middle;resizable=0;points=[];autosize=1;strokeColor=none;fillColor=none;fontSize=18;fontColor=#000000;" vertex="1" parent="1">
          <mxGeometry x="299.01" y="80" width="80" height="40" as="geometry" />
        </mxCell>
        <mxCell id="n-37MbfcTfM_iCQDtQmH-47" value="" style="shape=curlyBracket;whiteSpace=wrap;html=1;rounded=1;fontSize=18;fontColor=#000000;fillColor=#FFFFFF;rotation=90;strokeWidth=2;" vertex="1" parent="1">
          <mxGeometry x="611" y="50" width="20" height="280" as="geometry" />
        </mxCell>
        <mxCell id="n-37MbfcTfM_iCQDtQmH-48" value="Ready Queue" style="text;html=1;align=center;verticalAlign=middle;resizable=0;points=[];autosize=1;strokeColor=none;fillColor=none;fontSize=18;fontColor=#000000;" vertex="1" parent="1">
          <mxGeometry x="555" y="140" width="130" height="40" as="geometry" />
        </mxCell>
      </root>
    </mxGraphModel>
  </diagram>
</mxfile>
